<?plantuml 1.2026.2beta3?>
<svg xmlns="http://www.w3.org/2000/svg" xmlns:xlink="http://www.w3.org/1999/xlink" contentStyleType="text/css" data-diagram-type="DESCRIPTION" height="642px" preserveAspectRatio="none" style="width:714px;height:642px;background:#FFFFFF;" version="1.1" viewBox="0 0 714 642" width="714px" zoomAndPan="magnify"><title>Инструменты рисования</title><defs/><g><g class="title" data-source-line="1"><text fill="#000000" font-family="sans-serif" font-size="14" font-weight="bold" lengthAdjust="spacing" textLength="197.7363" x="251.5418" y="22.9951">Инструменты рисования</text></g><!--cluster WPF Paint--><g class="cluster" data-qualified-name="WPF Paint" data-source-line="6" id="ent0003"><rect fill="none" height="592" rx="2.5" ry="2.5" style="stroke:#181818;stroke-width:1;" width="552.72" x="156.1" y="44.2969"/><text fill="#000000" font-family="sans-serif" font-size="14" font-weight="bold" lengthAdjust="spacing" textLength="81.3066" x="391.8067" y="59.292">WPF Paint</text></g><!--entity UC_SelectTool--><g class="entity" data-qualified-name="WPF Paint.UC_SelectTool" data-source-line="7" id="ent0004"><ellipse cx="262.8223" cy="100.3013" fill="#F1F1F1" rx="90.7223" ry="20.5445" style="stroke:#181818;stroke-width:0.5;"/><text fill="#000000" font-family="sans-serif" font-size="14" lengthAdjust="spacing" textLength="155.374" x="185.1353" y="104.9498">Выбрать инструмент</text></g><!--entity UC_Pen--><g class="entity" data-qualified-name="WPF Paint.UC_Pen" data-source-line="9" id="ent0005"><ellipse cx="262.8238" cy="174.2976" fill="#F1F1F1" rx="78.7538" ry="18.1508" style="stroke:#181818;stroke-width:0.5;"/><text fill="#000000" font-family="sans-serif" font-size="14" lengthAdjust="spacing" textLength="127.7295" x="198.959" y="178.9461">Рисование пером</text></g><!--entity UC_Line--><g class="entity" data-qualified-name="WPF Paint.UC_Line" data-source-line="10" id="ent0006"><ellipse cx="262.8225" cy="245.2954" fill="#F1F1F1" rx="78.5925" ry="18.1185" style="stroke:#181818;stroke-width:0.5;"/><text fill="#000000" font-family="sans-serif" font-size="14" lengthAdjust="spacing" textLength="127.3467" x="199.1491" y="249.9438">Рисование линии</text></g><!--entity UC_Ellipse--><g class="entity" data-qualified-name="WPF Paint.UC_Ellipse" data-source-line="11" id="ent0007"><ellipse cx="262.8242" cy="317.2937" fill="#F1F1F1" rx="84.8842" ry="19.3768" style="stroke:#181818;stroke-width:0.5;"/><text fill="#000000" font-family="sans-serif" font-size="14" lengthAdjust="spacing" textLength="142.0576" x="191.7954" y="321.9421">Рисование эллипса</text></g><!--entity UC_Eraser--><g class="entity" data-qualified-name="WPF Paint.UC_Eraser" data-source-line="12" id="ent0008"><ellipse cx="262.815" cy="389.2959" fill="#F1F1F1" rx="78.345" ry="18.069" style="stroke:#181818;stroke-width:0.5;"/><text fill="#000000" font-family="sans-serif" font-size="14" lengthAdjust="spacing" textLength="126.7588" x="199.4356" y="393.9443">Стереть (ластик)</text></g><!--entity UC_Text--><g class="entity" data-qualified-name="WPF Paint.UC_Text" data-source-line="13" id="ent0009"><ellipse cx="262.8193" cy="459.2927" fill="#F1F1F1" rx="73.8793" ry="17.1759" style="stroke:#181818;stroke-width:0.5;"/><text fill="#000000" font-family="sans-serif" font-size="14" lengthAdjust="spacing" textLength="115.999" x="204.8197" y="463.9412">Добавить текст</text></g><!--entity UC_Bucket--><g class="entity" data-qualified-name="WPF Paint.UC_Bucket" data-source-line="14" id="ent0010"><ellipse cx="262.8187" cy="528.2946" fill="#F1F1F1" rx="73.5887" ry="17.1177" style="stroke:#181818;stroke-width:0.5;"/><text fill="#000000" font-family="sans-serif" font-size="14" lengthAdjust="spacing" textLength="115.2881" x="205.1746" y="532.943">Залить область</text></g><!--entity UC_Callout--><g class="entity" data-qualified-name="WPF Paint.UC_Callout" data-source-line="15" id="ent0011"><ellipse cx="262.8158" cy="600.292" fill="#F1F1F1" rx="85.8258" ry="19.5652" style="stroke:#181818;stroke-width:0.5;"/><text fill="#000000" font-family="sans-serif" font-size="14" lengthAdjust="spacing" textLength="144.2246" x="190.7035" y="604.9405">Рисование выноски</text></g><!--entity UC_Settings--><g class="entity" data-qualified-name="WPF Paint.UC_Settings" data-source-line="17" id="ent0012"><ellipse cx="584.6792" cy="389.2947" fill="#F1F1F1" rx="108.1392" ry="24.0278" style="stroke:#181818;stroke-width:0.5;"/><text fill="#000000" font-family="sans-serif" font-size="14" lengthAdjust="spacing" textLength="164.835" x="502.2617" y="389.0354">Настроить параметры</text><text fill="#000000" font-family="sans-serif" font-size="14" lengthAdjust="spacing" textLength="77.752" x="545.8032" y="405.3323">рисования</text></g><!--entity ????????????--><g class="entity" data-qualified-name="............" data-source-line="4" id="ent0002"><ellipse cx="57.5498" cy="331.6469" fill="#F1F1F1" rx="8" ry="8" style="stroke:#181818;stroke-width:0.5;"/><path d="M57.5498,339.6469 L57.5498,366.6469 M44.5498,347.6469 L70.5498,347.6469 M57.5498,366.6469 L44.5498,381.6469 M57.5498,366.6469 L70.5498,381.6469" fill="none" style="stroke:#181818;stroke-width:0.5;"/><text fill="#000000" font-family="sans-serif" font-size="14" lengthAdjust="spacing" textLength="103.0996" x="6" y="396.142">Пользователь</text></g><!--link ???????????? to UC_SelectTool--><g class="link" data-entity-1="ent0002" data-entity-2="ent0004" data-link-type="association" data-source-line="20" id="lnk13"><path d="M63.89,323.0669 C72.76,273.6969 95.12,188.2269 148.1,138.2969 C160.22,126.8769 175.87,118.8869 191.66,113.2869" fill="none" id="Пользователь-UC_SelectTool" style="stroke:#181818;stroke-width:1;"/></g><!--link ???????????? to UC_Pen--><g class="link" data-entity-1="ent0002" data-entity-2="ent0005" data-link-type="association" data-source-line="21" id="lnk14"><path d="M71.97,322.7269 C85.87,288.2369 110.84,238.7169 148.1,209.2969 C162.53,197.9069 180.67,190.1969 198.2,184.9969" fill="none" id="Пользователь-UC_Pen" style="stroke:#181818;stroke-width:1;"/></g><!--link ???????????? to UC_Line--><g class="link" data-entity-1="ent0002" data-entity-2="ent0006" data-link-type="association" data-source-line="22" id="lnk15"><path d="M93.57,323.0169 C109.05,307.9469 128.24,291.5869 148.1,280.2969 C165.34,270.4969 185.64,263.1269 204.29,257.7369" fill="none" id="Пользователь-UC_Line" style="stroke:#181818;stroke-width:1;"/></g><!--link ???????????? to UC_Ellipse--><g class="link" data-entity-1="ent0002" data-entity-2="ent0007" data-link-type="association" data-source-line="23" id="lnk16"><path d="M109.58,350.2469 C136.98,344.3169 170.97,336.9569 199.88,330.7069" fill="none" id="Пользователь-UC_Ellipse" style="stroke:#181818;stroke-width:1;"/></g><!--link ???????????? to UC_Eraser--><g class="link" data-entity-1="ent0002" data-entity-2="ent0008" data-link-type="association" data-source-line="24" id="lnk17"><path d="M109.58,368.3269 C135.34,371.8769 166.91,376.2269 194.62,380.0369" fill="none" id="Пользователь-UC_Eraser" style="stroke:#181818;stroke-width:1;"/></g><!--link ???????????? to UC_Text--><g class="link" data-entity-1="ent0002" data-entity-2="ent0009" data-link-type="association" data-source-line="25" id="lnk18"><path d="M106.45,399.9169 C119.44,409.1369 133.86,418.3169 148.1,425.2969 C167.07,434.5869 189.08,441.8869 208.65,447.3069" fill="none" id="Пользователь-UC_Text" style="stroke:#181818;stroke-width:1;"/></g><!--link ???????????? to UC_Bucket--><g class="link" data-entity-1="ent0002" data-entity-2="ent0010" data-link-type="association" data-source-line="26" id="lnk19"><path d="M75.5,399.9069 C90.51,429.7869 115.14,470.0469 148.1,494.2969 C163.7,505.7769 183.18,513.4069 201.58,518.4769" fill="none" id="Пользователь-UC_Bucket" style="stroke:#181818;stroke-width:1;"/></g><!--link ???????????? to UC_Callout--><g class="link" data-entity-1="ent0002" data-entity-2="ent0011" data-link-type="association" data-source-line="27" id="lnk20"><path d="M65.68,399.5769 C76.08,444.8669 99.68,519.6169 148.1,563.2969 C160.97,574.9069 177.55,582.8869 194.04,588.3569" fill="none" id="Пользователь-UC_Callout" style="stroke:#181818;stroke-width:1;"/></g><!--link UC_Pen to UC_Settings--><g class="link" data-entity-1="ent0005" data-entity-2="ent0012" data-link-type="dependency" data-source-line="29" id="lnk21"><path d="M307.92,189.5569 C322.69,195.1769 339.07,201.9669 353.54,209.2969 C437.49,251.7969 516.3172,323.0352 555.7372,361.3452" fill="none" id="UC_Pen-to-UC_Settings" style="stroke:#181818;stroke-width:1;stroke-dasharray:7,7;"/><polygon fill="#181818" points="560.04,365.5269,556.3736,356.3859,556.4543,362.0422,550.7981,362.123,560.04,365.5269" style="stroke:#181818;stroke-width:1;"/><text fill="#000000" font-family="sans-serif" font-size="13" lengthAdjust="spacing" textLength="61.1851" x="384.54" y="225.3638">«extend»</text></g><!--link UC_Line to UC_Settings--><g class="link" data-entity-1="ent0006" data-entity-2="ent0012" data-link-type="dependency" data-source-line="30" id="lnk22"><path d="M305.03,261.0369 C320.32,266.9569 337.76,273.8269 353.54,280.2969 C395.18,297.3669 405.76,301.2869 446.54,320.2969 C478.43,335.1569 508.566,350.2895 535.436,364.1295" fill="none" id="UC_Line-to-UC_Settings" style="stroke:#181818;stroke-width:1;stroke-dasharray:7,7;"/><polygon fill="#181818" points="540.77,366.8769,534.6006,359.1998,536.325,364.5874,530.9374,366.3118,540.77,366.8769" style="stroke:#181818;stroke-width:1;"/><text fill="#000000" font-family="sans-serif" font-size="13" lengthAdjust="spacing" textLength="61.1851" x="384.54" y="289.3638">«extend»</text></g><!--link UC_Ellipse to UC_Settings--><g class="link" data-entity-1="ent0007" data-entity-2="ent0012" data-link-type="dependency" data-source-line="31" id="lnk23"><path d="M324.36,330.9269 C376.25,342.6069 445.4165,358.169 501.4265,370.779" fill="none" id="UC_Ellipse-to-UC_Settings" style="stroke:#181818;stroke-width:1;stroke-dasharray:7,7;"/><polygon fill="#181818" points="507.28,372.0969,499.3783,366.2178,502.4021,370.9987,497.6212,374.0224,507.28,372.0969" style="stroke:#181818;stroke-width:1;"/><text fill="#000000" font-family="sans-serif" font-size="13" lengthAdjust="spacing" textLength="61.1851" x="384.54" y="341.3638">«extend»</text></g><!--link UC_Eraser to UC_Settings--><g class="link" data-entity-1="ent0008" data-entity-2="ent0012" data-link-type="dependency" data-source-line="32" id="lnk24"><path d="M341.66,389.2969 C382.07,389.2969 426.06,389.2969 470.1,389.2969" fill="none" id="UC_Eraser-to-UC_Settings" style="stroke:#181818;stroke-width:1;stroke-dasharray:7,7;"/><polygon fill="#181818" points="476.1,389.2969,467.1,385.2969,471.1,389.2969,467.1,393.2969,476.1,389.2969" style="stroke:#181818;stroke-width:1;"/><text fill="#000000" font-family="sans-serif" font-size="13" lengthAdjust="spacing" textLength="61.1851" x="384.54" y="385.3638">«extend»</text></g><!--link UC_Text to UC_Settings--><g class="link" data-entity-1="ent0009" data-entity-2="ent0012" data-link-type="dependency" data-source-line="33" id="lnk25"><path d="M317.72,447.4969 C369.44,436.1869 442.2286,420.2492 500.5986,407.4792" fill="none" id="UC_Text-to-UC_Settings" style="stroke:#181818;stroke-width:1;stroke-dasharray:7,7;"/><polygon fill="#181818" points="506.46,406.1969,496.8131,404.2128,501.5755,407.2655,498.5228,412.0279,506.46,406.1969" style="stroke:#181818;stroke-width:1;"/><text fill="#000000" font-family="sans-serif" font-size="13" lengthAdjust="spacing" textLength="61.1851" x="384.54" y="416.3638">«extend»</text></g><!--link UC_Bucket to UC_Settings--><g class="link" data-entity-1="ent0010" data-entity-2="ent0012" data-link-type="dependency" data-source-line="34" id="lnk26"><path d="M302.71,513.6269 C318.49,507.6569 336.9,500.6769 353.54,494.2969 C394.93,478.4469 406.03,476.2769 446.54,458.2969 C479.07,443.8569 509.6421,428.4954 536.5521,414.4354" fill="none" id="UC_Bucket-to-UC_Settings" style="stroke:#181818;stroke-width:1;stroke-dasharray:7,7;"/><polygon fill="#181818" points="541.87,411.6569,532.0408,412.2794,537.4384,413.9723,535.7455,419.3699,541.87,411.6569" style="stroke:#181818;stroke-width:1;"/><text fill="#000000" font-family="sans-serif" font-size="13" lengthAdjust="spacing" textLength="61.1851" x="384.54" y="454.3638">«extend»</text></g><!--link UC_Callout to UC_Settings--><g class="link" data-entity-1="ent0011" data-entity-2="ent0012" data-link-type="dependency" data-source-line="35" id="lnk27"><path d="M308.19,583.4669 C322.83,577.5269 339.07,570.5169 353.54,563.2969 C396.52,541.8669 407.58,536.3669 446.54,508.2969 C488.23,478.2569 528.067,442.3456 554.677,417.2256" fill="none" id="UC_Callout-to-UC_Settings" style="stroke:#181818;stroke-width:1;stroke-dasharray:7,7;"/><polygon fill="#181818" points="559.04,413.1069,549.7496,416.3763,555.4041,416.5392,555.2413,422.1937,559.04,413.1069" style="stroke:#181818;stroke-width:1;"/><text fill="#000000" font-family="sans-serif" font-size="13" lengthAdjust="spacing" textLength="61.1851" x="384.54" y="504.3638">«extend»</text></g><?plantuml-src XPBFIiD04CRl-nH3Jtfe7q1A3nOzUIXOyI98IDSQN199jY28qDPZAu88UX7r3Tf2iVJlAyo-aRERZTLKtK0Wk_b-C_lDjpAGWWC-uq9rL5UrrItESKohhkg1QkD4TN298npWWhxlcU1d4cG4ST0ybz08OkxB80ePytmPnO2lf9wfFdwabEfICLepfeLUsAHcXUFQFjIy89G5k6P0JolXlfVG7tnGFHnIMm9L7t2oUQm2U0aSLKyFkQ2AzIWIfaIkpjlFW-COS8LZAhp4ULQXnaCtDTDde7UIKGT1o9sOkYDGeolwCSZGFI62ooHFl-iPqSd6nl8MOGFjcU3fzXSPapREWO_KSaWjHzHUesRMKyrcM9rVoHpqHC3C0eQtxLG_WtPR_WMNxicCAAe5BcbxkfvErHCYQidV8dcnZNG6jl-AjYXh7Qq9kNSIRbwvTU1I1c4pOJUC_NNDe5ZCtGs7Kjy1XyG4xj1aoRfaQOmEbKdDeR4XELHP6Ynr2gLIvViaOGVAPMh6mqQbmgnLfyXwTUkCMQTCktMAKhjEcVNxh-uJ?></g></svg>