<?plantuml 1.2026.2beta3?>
<svg xmlns="http://www.w3.org/2000/svg" xmlns:xlink="http://www.w3.org/1999/xlink" contentStyleType="text/css" data-diagram-type="DESCRIPTION" height="315px" preserveAspectRatio="none" style="width:1055px;height:315px;background:#FFFFFF;" version="1.1" viewBox="0 0 1055 315" width="1055px" zoomAndPan="magnify"><title>Масштаб и холст</title><defs/><g><g class="title" data-source-line="1"><text fill="#000000" font-family="sans-serif" font-size="14" font-weight="bold" lengthAdjust="spacing" textLength="138.7559" x="451.5221" y="22.9951">Масштаб и холст</text></g><!--cluster WPF Paint--><g class="cluster" data-qualified-name="WPF Paint" data-source-line="6" id="ent0003"><rect fill="none" height="265" rx="2.5" ry="2.5" style="stroke:#181818;stroke-width:1;" width="893.7" x="156.1" y="44.2969"/><text fill="#000000" font-family="sans-serif" font-size="14" font-weight="bold" lengthAdjust="spacing" textLength="81.3066" x="562.2967" y="59.292">WPF Paint</text></g><!--entity UC_ZoomIn--><g class="entity" data-qualified-name="WPF Paint.UC_ZoomIn" data-source-line="7" id="ent0004"><ellipse cx="275.6471" cy="104.3009" fill="#F1F1F1" rx="99.7771" ry="24.504" style="stroke:#181818;stroke-width:0.5;"/><text fill="#000000" font-family="sans-serif" font-size="14" lengthAdjust="spacing" textLength="146.6855" x="202.3044" y="103.068">Увеличить масштаб</text><text fill="#000000" font-family="sans-serif" font-size="14" lengthAdjust="spacing" textLength="97.6924" x="226.801" y="119.3649">(приблизить)</text></g><!--entity UC_ZoomOut--><g class="entity" data-qualified-name="WPF Paint.UC_ZoomOut" data-source-line="8" id="ent0005"><ellipse cx="275.6457" cy="188.2925" fill="#F1F1F1" rx="101.8157" ry="24.0656" style="stroke:#181818;stroke-width:0.5;"/><text fill="#000000" font-family="sans-serif" font-size="14" lengthAdjust="spacing" textLength="152.8926" x="199.1994" y="187.7413">Уменьшить масштаб</text><text fill="#000000" font-family="sans-serif" font-size="14" lengthAdjust="spacing" textLength="80.3564" x="235.4674" y="204.0381">(отдалить)</text></g><!--entity UC_Resize--><g class="entity" data-qualified-name="WPF Paint.UC_Resize" data-source-line="9" id="ent0006"><ellipse cx="275.6503" cy="270.2969" fill="#F1F1F1" rx="103.5503" ry="23.1101" style="stroke:#181818;stroke-width:0.5;"/><text fill="#000000" font-family="sans-serif" font-size="14" lengthAdjust="spacing" textLength="183.8525" x="183.724" y="274.9454">Изменить размер холста</text></g><!--entity UC_Info--><g class="entity" data-qualified-name="WPF Paint.UC_Info" data-source-line="10" id="ent0007"><ellipse cx="618.0265" cy="188.2922" fill="#F1F1F1" rx="113.8265" ry="25.1653" style="stroke:#181818;stroke-width:0.5;"/><text fill="#000000" font-family="sans-serif" font-size="14" lengthAdjust="spacing" textLength="180.7148" x="527.6691" y="188.2546">Изменение информации</text><text fill="#000000" font-family="sans-serif" font-size="14" lengthAdjust="spacing" textLength="100.4336" x="567.8097" y="204.5515">в статус баре</text></g><g class="entity" data-qualified-name="WPF Paint.GMN8" data-source-line="13" id="ent0009"><path d="M792.85,160.5969 L792.85,184.2969 L732,188.2969 L792.85,192.2969 L792.85,215.9953 A0,0 0 0 0 792.85,215.9953 L1033.7963,215.9953 A0,0 0 0 0 1033.7963,215.9953 L1033.7963,170.5969 L1023.7963,160.5969 L792.85,160.5969 A0,0 0 0 0 792.85,160.5969" fill="#FEFFDD" style="stroke:#181818;stroke-width:0.5;"/><path d="M1023.7963,160.5969 L1023.7963,170.5969 L1033.7963,170.5969 L1023.7963,160.5969" fill="#FEFFDD" style="stroke:#181818;stroke-width:0.5;"/><text fill="#000000" font-family="sans-serif" font-size="13" lengthAdjust="spacing" textLength="219.9463" x="798.85" y="177.6638">Статус бар отображает размер,</text><text fill="#000000" font-family="sans-serif" font-size="13" lengthAdjust="spacing" textLength="214.519" x="798.85" y="192.7966">масштаб, текущий инструмент</text><text fill="#000000" font-family="sans-serif" font-size="13" lengthAdjust="spacing" textLength="131.8853" x="798.85" y="207.9294">и позицию курсора</text></g><!--entity ????????????--><g class="entity" data-qualified-name="............" data-source-line="4" id="ent0002"><ellipse cx="57.5498" cy="158.6469" fill="#F1F1F1" rx="8" ry="8" style="stroke:#181818;stroke-width:0.5;"/><path d="M57.5498,166.6469 L57.5498,193.6469 M44.5498,174.6469 L70.5498,174.6469 M57.5498,193.6469 L44.5498,208.6469 M57.5498,193.6469 L70.5498,208.6469" fill="none" style="stroke:#181818;stroke-width:0.5;"/><text fill="#000000" font-family="sans-serif" font-size="14" lengthAdjust="spacing" textLength="103.0996" x="6" y="223.142">Пользователь</text></g><!--link ???????????? to UC_ZoomIn--><g class="link" data-entity-1="ent0002" data-entity-2="ent0004" data-link-type="dependency" data-source-line="19" id="lnk11"><path d="M109.24,163.2569 C121.81,157.3969 135.34,151.3869 148.1,146.2969 C168.63,138.1069 185.7572,132.0517 206.3072,125.3317" fill="none" id="Пользователь-to-UC_ZoomIn" style="stroke:#181818;stroke-width:1;"/><polygon fill="#181818" points="212.01,123.4669,202.2125,122.4623,207.2576,125.0209,204.699,130.0661,212.01,123.4669" style="stroke:#181818;stroke-width:1;"/></g><!--link ???????????? to UC_ZoomOut--><g class="link" data-entity-1="ent0002" data-entity-2="ent0005" data-link-type="dependency" data-source-line="20" id="lnk12"><path d="M109.49,188.2969 C128.71,188.2969 145.3,188.2969 167.51,188.2969" fill="none" id="Пользователь-to-UC_ZoomOut" style="stroke:#181818;stroke-width:1;"/><polygon fill="#181818" points="173.51,188.2969,164.51,184.2969,168.51,188.2969,164.51,192.2969,173.51,188.2969" style="stroke:#181818;stroke-width:1;"/></g><!--link ???????????? to UC_Resize--><g class="link" data-entity-1="ent0002" data-entity-2="ent0006" data-link-type="dependency" data-source-line="21" id="lnk13"><path d="M109.19,213.4669 C121.76,219.3269 135.3,225.2969 148.1,230.2969 C168.17,238.1369 184.7311,243.8038 204.9411,250.0938" fill="none" id="Пользователь-to-UC_Resize" style="stroke:#181818;stroke-width:1;"/><polygon fill="#181818" points="210.67,251.8769,203.2653,245.383,205.8959,250.391,200.8879,253.0216,210.67,251.8769" style="stroke:#181818;stroke-width:1;"/></g><!--link UC_ZoomIn to UC_Info--><g class="link" data-entity-1="ent0004" data-entity-2="ent0007" data-link-type="dependency" data-source-line="23" id="lnk14"><path d="M347.18,121.6969 C403.65,135.6369 476.895,153.7085 534.845,168.0185" fill="none" id="UC_ZoomIn-to-UC_Info" style="stroke:#181818;stroke-width:1;stroke-dasharray:7,7;"/><polygon fill="#181818" points="540.67,169.4569,532.8914,163.4159,535.8158,168.2582,530.9735,171.1826,540.67,169.4569" style="stroke:#181818;stroke-width:1;"/><text fill="#000000" font-family="sans-serif" font-size="13" lengthAdjust="spacing" textLength="63.0068" x="410.2" y="135.3638">«include»</text></g><!--link UC_ZoomOut to UC_Info--><g class="link" data-entity-1="ent0005" data-entity-2="ent0007" data-link-type="dependency" data-source-line="24" id="lnk15"><path d="M377.85,188.2969 C417.54,188.2969 457.24,188.2969 498,188.2969" fill="none" id="UC_ZoomOut-to-UC_Info" style="stroke:#181818;stroke-width:1;stroke-dasharray:7,7;"/><polygon fill="#181818" points="504,188.2969,495,184.2969,499,188.2969,495,192.2969,504,188.2969" style="stroke:#181818;stroke-width:1;"/><text fill="#000000" font-family="sans-serif" font-size="13" lengthAdjust="spacing" textLength="63.0068" x="410.2" y="184.3638">«include»</text></g><!--link UC_Resize to UC_Info--><g class="link" data-entity-1="ent0006" data-entity-2="ent0007" data-link-type="dependency" data-source-line="25" id="lnk16"><path d="M347.18,253.3069 C403.35,239.7769 476.0668,222.252 533.9368,208.312" fill="none" id="UC_Resize-to-UC_Info" style="stroke:#181818;stroke-width:1;stroke-dasharray:7,7;"/><polygon fill="#181818" points="539.77,206.9069,530.0835,205.1258,534.909,208.0778,531.957,212.9033,539.77,206.9069" style="stroke:#181818;stroke-width:1;"/><text fill="#000000" font-family="sans-serif" font-size="13" lengthAdjust="spacing" textLength="63.0068" x="410.2" y="221.3638">«include»</text></g><?plantuml-src ZPBFIiD04CRl-nH3Jmfj7q1ABeBGaqKGGGeIqcqDr5rejXT5I5F_L2YUFGWYla1Qh4PRsrUOVICdczIsrgWBcsHtl_djDpDHhcfom7iCTKVtT80X3W0Zq9SunJ7j1Qp9wmgKX9RRE5PGSrlSKQuKZDcEaYt01wFiuokzXyG9S1Il6Ok5jcWGFtTGsO6AxGgLWpC6DDeUTsoFJl29WYW08trDCz1zmCcocwhOm9dsCS91hA9hZ6ep1xO7-zj7XrAUbCKQT4BG3ztNlKpeb3wVQJ7-0RZRLj-8TtInOQOySXGcMzfVgXQ6SymUzznJdaan91nHhSdc1PdnZSChMaTLWKD8Q7HNLtU0SWz9CPh3ow8k3TeyX5GyRO-ihnp70n_NG62Id-B0PF52SwI3bPJoY_2LmkN1zFUTO3TazItnJrQrhxjfqGDO14U0CxeeRXgbfc_1XFgwOp8EZP2Bcac1dJEMzJT1eM0jTVi_ihY7V-dI9h4lCXIBrho2i0MbaYkSPhl6BOijiB-B4cQsvXC0?></g></svg>