<?plantuml 1.2026.2beta3?>
<svg xmlns="http://www.w3.org/2000/svg" xmlns:xlink="http://www.w3.org/1999/xlink" contentStyleType="text/css" data-diagram-type="DESCRIPTION" height="315px" preserveAspectRatio="none" style="width:1131px;height:315px;background:#FFFFFF;" version="1.1" viewBox="0 0 1131 315" width="1131px" zoomAndPan="magnify"><title>Масштаб и холст</title><defs/><g><g class="title" data-source-line="1"><text fill="#000000" font-family="sans-serif" font-size="14" font-weight="bold" lengthAdjust="spacing" textLength="138.7559" x="489.1921" y="22.9951">Масштаб и холст</text></g><!--cluster WPF Paint--><g class="cluster" data-qualified-name="WPF Paint" data-source-line="6" id="ent0003"><rect fill="none" height="265" rx="2.5" ry="2.5" style="stroke:#181818;stroke-width:1;" width="969.04" x="156.1" y="44.2969"/><text fill="#000000" font-family="sans-serif" font-size="14" font-weight="bold" lengthAdjust="spacing" textLength="81.3066" x="599.9667" y="59.292">WPF Paint</text></g><!--entity UC_ZoomIn--><g class="entity" data-qualified-name="WPF Paint.UC_ZoomIn" data-source-line="7" id="ent0004"><ellipse cx="275.6471" cy="104.3009" fill="#F1F1F1" rx="99.7771" ry="24.504" style="stroke:#181818;stroke-width:0.5;"/><text fill="#000000" font-family="sans-serif" font-size="14" lengthAdjust="spacing" textLength="146.6855" x="202.3044" y="103.068">Увеличить масштаб</text><text fill="#000000" font-family="sans-serif" font-size="14" lengthAdjust="spacing" textLength="97.6924" x="226.801" y="119.3649">(приблизить)</text></g><!--entity UC_ZoomOut--><g class="entity" data-qualified-name="WPF Paint.UC_ZoomOut" data-source-line="8" id="ent0005"><ellipse cx="275.6457" cy="188.2925" fill="#F1F1F1" rx="101.8157" ry="24.0656" style="stroke:#181818;stroke-width:0.5;"/><text fill="#000000" font-family="sans-serif" font-size="14" lengthAdjust="spacing" textLength="152.8926" x="199.1994" y="187.7413">Уменьшить масштаб</text><text fill="#000000" font-family="sans-serif" font-size="14" lengthAdjust="spacing" textLength="80.3564" x="235.4674" y="204.0381">(отдалить)</text></g><!--entity UC_Resize--><g class="entity" data-qualified-name="WPF Paint.UC_Resize" data-source-line="9" id="ent0006"><ellipse cx="275.6503" cy="270.2969" fill="#F1F1F1" rx="103.5503" ry="23.1101" style="stroke:#181818;stroke-width:0.5;"/><text fill="#000000" font-family="sans-serif" font-size="14" lengthAdjust="spacing" textLength="183.8525" x="183.724" y="274.9454">Изменить размер холста</text></g><!--entity UC_Info--><g class="entity" data-qualified-name="WPF Paint.UC_Info" data-source-line="10" id="ent0007"><ellipse cx="655.6977" cy="188.2964" fill="#F1F1F1" rx="151.4977" ry="32.6995" style="stroke:#181818;stroke-width:0.5;"/><text fill="#000000" font-family="sans-serif" font-size="14" lengthAdjust="spacing" textLength="285.5986" x="512.8984" y="192.9449">Изменение информации в статус баре</text></g><g class="entity" data-qualified-name="WPF Paint.GMN8" data-source-line="13" id="ent0009"><path d="M868.2,160.5969 L868.2,184.2969 L807.66,188.2969 L868.2,192.2969 L868.2,215.9953 A0,0 0 0 0 868.2,215.9953 L1109.1463,215.9953 A0,0 0 0 0 1109.1463,215.9953 L1109.1463,170.5969 L1099.1463,160.5969 L868.2,160.5969 A0,0 0 0 0 868.2,160.5969" fill="#FEFFDD" style="stroke:#181818;stroke-width:0.5;"/><path d="M1099.1463,160.5969 L1099.1463,170.5969 L1109.1463,170.5969 L1099.1463,160.5969" fill="#FEFFDD" style="stroke:#181818;stroke-width:0.5;"/><text fill="#000000" font-family="sans-serif" font-size="13" lengthAdjust="spacing" textLength="219.9463" x="874.2" y="177.6638">Статус бар отображает размер,</text><text fill="#000000" font-family="sans-serif" font-size="13" lengthAdjust="spacing" textLength="214.519" x="874.2" y="192.7966">масштаб, текущий инструмент</text><text fill="#000000" font-family="sans-serif" font-size="13" lengthAdjust="spacing" textLength="131.8853" x="874.2" y="207.9294">и позицию курсора</text></g><!--entity ????????????--><g class="entity" data-qualified-name="............" data-source-line="4" id="ent0002"><ellipse cx="57.5498" cy="158.6469" fill="#F1F1F1" rx="8" ry="8" style="stroke:#181818;stroke-width:0.5;"/><path d="M57.5498,166.6469 L57.5498,193.6469 M44.5498,174.6469 L70.5498,174.6469 M57.5498,193.6469 L44.5498,208.6469 M57.5498,193.6469 L70.5498,208.6469" fill="none" style="stroke:#181818;stroke-width:0.5;"/><text fill="#000000" font-family="sans-serif" font-size="14" lengthAdjust="spacing" textLength="103.0996" x="6" y="223.142">Пользователь</text></g><!--link ???????????? to UC_ZoomIn--><g class="link" data-entity-1="ent0002" data-entity-2="ent0004" data-link-type="association" data-source-line="19" id="lnk11"><path d="M109.24,163.2569 C121.81,157.3969 135.34,151.3869 148.1,146.2969 C168.63,138.1069 191.46,130.1869 212.01,123.4669" fill="none" id="Пользователь-UC_ZoomIn" style="stroke:#181818;stroke-width:1;"/></g><!--link ???????????? to UC_ZoomOut--><g class="link" data-entity-1="ent0002" data-entity-2="ent0005" data-link-type="association" data-source-line="20" id="lnk12"><path d="M109.49,188.2969 C128.71,188.2969 151.3,188.2969 173.51,188.2969" fill="none" id="Пользователь-UC_ZoomOut" style="stroke:#181818;stroke-width:1;"/></g><!--link ???????????? to UC_Resize--><g class="link" data-entity-1="ent0002" data-entity-2="ent0006" data-link-type="association" data-source-line="21" id="lnk13"><path d="M109.19,213.4669 C121.76,219.3269 135.3,225.2969 148.1,230.2969 C168.17,238.1369 190.46,245.5869 210.67,251.8769" fill="none" id="Пользователь-UC_Resize" style="stroke:#181818;stroke-width:1;"/></g><!--link UC_ZoomIn to UC_Info--><g class="link" data-entity-1="ent0004" data-entity-2="ent0007" data-link-type="dependency" data-source-line="23" id="lnk14"><path d="M350.89,120.7969 C407.34,133.3369 479.9029,149.455 542.9329,163.465" fill="none" id="UC_ZoomIn-to-UC_Info" style="stroke:#181818;stroke-width:1;stroke-dasharray:7,7;"/><polygon fill="#181818" points="548.79,164.7669,540.8723,158.9094,543.9091,163.682,539.1365,166.7188,548.79,164.7669" style="stroke:#181818;stroke-width:1;"/><text fill="#000000" font-family="sans-serif" font-size="13" lengthAdjust="spacing" textLength="63.0068" x="410.2" y="130.3638">«include»</text></g><!--link UC_ZoomOut to UC_Info--><g class="link" data-entity-1="ent0005" data-entity-2="ent0007" data-link-type="dependency" data-source-line="24" id="lnk15"><path d="M377.96,188.2969 C416.67,188.2969 455.69,188.2969 498.03,188.2969" fill="none" id="UC_ZoomOut-to-UC_Info" style="stroke:#181818;stroke-width:1;stroke-dasharray:7,7;"/><polygon fill="#181818" points="504.03,188.2969,495.03,184.2969,499.03,188.2969,495.03,192.2969,504.03,188.2969" style="stroke:#181818;stroke-width:1;"/><text fill="#000000" font-family="sans-serif" font-size="13" lengthAdjust="spacing" textLength="63.0068" x="410.2" y="184.3638">«include»</text></g><!--link UC_Resize to UC_Info--><g class="link" data-entity-1="ent0006" data-entity-2="ent0007" data-link-type="dependency" data-source-line="25" id="lnk16"><path d="M351.34,254.0969 C407.4,241.9369 479.0764,226.3888 541.7264,212.7988" fill="none" id="UC_Resize-to-UC_Info" style="stroke:#181818;stroke-width:1;stroke-dasharray:7,7;"/><polygon fill="#181818" points="547.59,211.5269,537.9466,209.5257,542.7036,212.5868,539.6425,217.3439,547.59,211.5269" style="stroke:#181818;stroke-width:1;"/><text fill="#000000" font-family="sans-serif" font-size="13" lengthAdjust="spacing" textLength="63.0068" x="410.2" y="225.3638">«include»</text></g><?plantuml-src ZPBFIiD04CRl-nH3Jmgr3o2b5q7eoIA888A4T5i3TGFDzg88QUgV2iMp1q745qYBrMXh-mepR-HaazhM6dLXa-pkDx-TRoRQqGq9U8yXjQbB0ORO1uo0Bd628zuBH4FMD6WNcaxzM4FLQKfREwuImhArsmHyCCeUll9xm9m0X_5QY5XegJhpS_kLRQXOZj8vE1F0e-L9s_Bu19yuY0CmeckU0VK0nulP7Aerd9AF4VPZ5LzZLEivi3pOspewSDsJibg1ZXdwGJtgPa8d_FdCYz4Fm9sM_aQyuuiDC-LnHc6oHVv2jJ2SONQbvvpAJ8eXuP1hpMbUS3A-oV2Arn7W018ONzMXDh3ra0N36RkiQguXcuTojKoxuzQMZkE1ZoiWCDuds3ScNdWEALXob9-7BzKj3wQzxmoxuKpValGvLVAfazOycCUoaodV4xUCZT4jc4YVsiPlQ8HILOq3SIv4rhy46niBhVw7AkxV7xAqF-AB2uL2QLOzs8HYqL5serMLfPAOKtyN9SnipIS0?></g></svg>