<?plantuml 1.2026.2beta3?>
<svg xmlns="http://www.w3.org/2000/svg" xmlns:xlink="http://www.w3.org/1999/xlink" contentStyleType="text/css" data-diagram-type="DESCRIPTION" height="461px" preserveAspectRatio="none" style="width:741px;height:461px;background:#FFFFFF;" version="1.1" viewBox="0 0 741 461" width="741px" zoomAndPan="magnify"><title>Настройки рисования</title><defs/><g><g class="title" data-source-line="1"><text fill="#000000" font-family="sans-serif" font-size="14" font-weight="bold" lengthAdjust="spacing" textLength="175.7383" x="276.1259" y="22.9951">Настройки рисования</text></g><!--cluster WPF Paint--><g class="cluster" data-qualified-name="WPF Paint" data-source-line="6" id="ent0003"><rect fill="none" height="411" rx="2.5" ry="2.5" style="stroke:#181818;stroke-width:1;" width="579.89" x="156.1" y="44.2969"/><text fill="#000000" font-family="sans-serif" font-size="14" font-weight="bold" lengthAdjust="spacing" textLength="81.3066" x="405.3917" y="59.292">WPF Paint</text></g><!--entity UC_StrokeColor--><g class="entity" data-qualified-name="WPF Paint.UC_StrokeColor" data-source-line="7" id="ent0004"><ellipse cx="280.6777" cy="101.2924" fill="#F1F1F1" rx="100.1777" ry="22.4355" style="stroke:#181818;stroke-width:0.5;"/><text fill="#000000" font-family="sans-serif" font-size="14" lengthAdjust="spacing" textLength="176.4492" x="192.4531" y="105.9409">Изменить цвет обводки</text></g><!--entity UC_FillColor--><g class="entity" data-qualified-name="WPF Paint.UC_FillColor" data-source-line="8" id="ent0005"><ellipse cx="280.6844" cy="181.2978" fill="#F1F1F1" rx="99.5544" ry="22.3109" style="stroke:#181818;stroke-width:0.5;"/><text fill="#000000" font-family="sans-serif" font-size="14" lengthAdjust="spacing" textLength="175.0752" x="193.1468" y="185.9462">Изменить цвет заливки</text></g><!--entity UC_Thickness--><g class="entity" data-qualified-name="WPF Paint.UC_Thickness" data-source-line="9" id="ent0006"><ellipse cx="280.6802" cy="262.2929" fill="#F1F1F1" rx="107.0302" ry="23.806" style="stroke:#181818;stroke-width:0.5;"/><text fill="#000000" font-family="sans-serif" font-size="14" lengthAdjust="spacing" textLength="191.4404" x="184.96" y="266.9414">Изменить толщину линии</text></g><!--entity UC_Filled--><g class="entity" data-qualified-name="WPF Paint.UC_Filled" data-source-line="10" id="ent0007"><ellipse cx="280.6832" cy="345.295" fill="#F1F1F1" rx="108.5832" ry="24.5681" style="stroke:#181818;stroke-width:0.5;"/><text fill="#000000" font-family="sans-serif" font-size="14" lengthAdjust="spacing" textLength="159.5576" x="200.9044" y="343.9641">Включить/выключить</text><text fill="#000000" font-family="sans-serif" font-size="14" lengthAdjust="spacing" textLength="109.1084" x="226.129" y="360.2609">заливку фигур</text></g><!--entity UC_Text--><g class="entity" data-qualified-name="WPF Paint.UC_Text" data-source-line="11" id="ent0008"><ellipse cx="280.6793" cy="422.2927" fill="#F1F1F1" rx="73.8793" ry="17.1759" style="stroke:#181818;stroke-width:0.5;"/><text fill="#000000" font-family="sans-serif" font-size="14" lengthAdjust="spacing" textLength="115.999" x="222.6797" y="426.9412">Добавить текст</text></g><!--entity UC_Font--><g class="entity" data-qualified-name="WPF Paint.UC_Font" data-source-line="12" id="ent0009"><ellipse cx="616.1306" cy="422.301" fill="#F1F1F1" rx="74.9206" ry="17.3841" style="stroke:#181818;stroke-width:0.5;"/><text fill="#000000" font-family="sans-serif" font-size="14" lengthAdjust="spacing" textLength="118.5352" x="556.863" y="426.9494">Выбрать шрифт</text></g><!--entity UC_FontSize--><g class="entity" data-qualified-name="WPF Paint.UC_FontSize" data-source-line="13" id="ent0010"><ellipse cx="616.1329" cy="346.2995" fill="#F1F1F1" rx="103.8629" ry="23.1726" style="stroke:#181818;stroke-width:0.5;"/><text fill="#000000" font-family="sans-serif" font-size="14" lengthAdjust="spacing" textLength="184.5361" x="523.8648" y="350.9479">Выбрать размер шрифта</text></g><g class="entity" data-qualified-name="WPF Paint.GMN11" data-source-line="16" id="ent0012"><path d="M524.89,248.1669 L524.89,288.4325 A0,0 0 0 0 524.89,288.4325 L524.89,288.4325 L357.76,327.7269 L532.89,288.4325 L707.3617,288.4325 A0,0 0 0 0 707.3617,288.4325 L707.3617,258.1669 L697.3617,248.1669 L524.89,248.1669 A0,0 0 0 0 524.89,248.1669" fill="#FEFFDD" style="stroke:#181818;stroke-width:0.5;"/><path d="M697.3617,248.1669 L697.3617,258.1669 L707.3617,258.1669 L697.3617,248.1669" fill="#FEFFDD" style="stroke:#181818;stroke-width:0.5;"/><text fill="#000000" font-family="sans-serif" font-size="13" lengthAdjust="spacing" textLength="150.5347" x="530.89" y="265.2338">Заливка применяется</text><text fill="#000000" font-family="sans-serif" font-size="13" lengthAdjust="spacing" textLength="161.4717" x="530.89" y="280.3666">к эллипсам и выноскам</text></g><!--entity ????????????--><g class="entity" data-qualified-name="............" data-source-line="4" id="ent0002"><ellipse cx="57.5498" cy="232.6469" fill="#F1F1F1" rx="8" ry="8" style="stroke:#181818;stroke-width:0.5;"/><path d="M57.5498,240.6469 L57.5498,267.6469 M44.5498,248.6469 L70.5498,248.6469 M57.5498,267.6469 L44.5498,282.6469 M57.5498,267.6469 L70.5498,282.6469" fill="none" style="stroke:#181818;stroke-width:0.5;"/><text fill="#000000" font-family="sans-serif" font-size="14" lengthAdjust="spacing" textLength="103.0996" x="6" y="297.142">Пользователь</text></g><!--link ???????????? to UC_StrokeColor--><g class="link" data-entity-1="ent0002" data-entity-2="ent0004" data-link-type="dependency" data-source-line="21" id="lnk14"><path d="M78.3,223.8369 C93.88,197.0869 117.99,162.5369 148.1,141.2969 C164.29,129.8769 178.0893,123.4243 197.0793,117.5343" fill="none" id="Пользователь-to-UC_StrokeColor" style="stroke:#181818;stroke-width:1;"/><polygon fill="#181818" points="202.81,115.7569,193.029,114.6026,198.0344,117.2381,195.3989,122.2435,202.81,115.7569" style="stroke:#181818;stroke-width:1;"/></g><!--link ???????????? to UC_FillColor--><g class="link" data-entity-1="ent0002" data-entity-2="ent0005" data-link-type="dependency" data-source-line="22" id="lnk15"><path d="M109.19,237.6769 C121.77,231.9669 135.31,226.1469 148.1,221.2969 C169.98,213.0069 188.638,206.904 210.438,200.434" fill="none" id="Пользователь-to-UC_FillColor" style="stroke:#181818;stroke-width:1;"/><polygon fill="#181818" points="216.19,198.7269,206.4239,197.4529,211.3967,200.1495,208.7001,205.1223,216.19,198.7269" style="stroke:#181818;stroke-width:1;"/></g><!--link ???????????? to UC_Thickness--><g class="link" data-entity-1="ent0002" data-entity-2="ent0006" data-link-type="dependency" data-source-line="23" id="lnk16"><path d="M109.56,262.2969 C128.69,262.2969 145.22,262.2969 167.5,262.2969" fill="none" id="Пользователь-to-UC_Thickness" style="stroke:#181818;stroke-width:1;"/><polygon fill="#181818" points="173.5,262.2969,164.5,258.2969,168.5,262.2969,164.5,266.2969,173.5,262.2969" style="stroke:#181818;stroke-width:1;"/></g><!--link ???????????? to UC_Filled--><g class="link" data-entity-1="ent0002" data-entity-2="ent0007" data-link-type="dependency" data-source-line="24" id="lnk17"><path d="M109.24,286.7869 C121.81,292.5069 135.34,298.3569 148.1,303.2969 C168.9,311.3469 186.2278,317.2824 207.1578,323.8824" fill="none" id="Пользователь-to-UC_Filled" style="stroke:#181818;stroke-width:1;"/><polygon fill="#181818" points="212.88,325.6869,205.4996,319.1654,208.1115,324.1832,203.0937,326.7951,212.88,325.6869" style="stroke:#181818;stroke-width:1;"/></g><!--link ???????????? to UC_Text--><g class="link" data-entity-1="ent0002" data-entity-2="ent0008" data-link-type="dependency" data-source-line="25" id="lnk18"><path d="M76.97,300.8869 C92.26,328.8869 116.58,365.5269 148.1,387.2969 C167.65,400.7969 186.2675,407.7747 208.7975,412.8647" fill="none" id="Пользователь-to-UC_Text" style="stroke:#181818;stroke-width:1;"/><polygon fill="#181818" points="214.65,414.1869,206.7527,408.3019,209.7729,413.085,204.9898,416.1052,214.65,414.1869" style="stroke:#181818;stroke-width:1;"/></g><!--link UC_Text to UC_Font--><g class="link" data-entity-1="ent0008" data-entity-2="ent0009" data-link-type="dependency" data-source-line="27" id="lnk19"><path d="M354.86,422.2969 C410.07,422.2969 479.52,422.2969 534.97,422.2969" fill="none" id="UC_Text-to-UC_Font" style="stroke:#181818;stroke-width:1;stroke-dasharray:7,7;"/><polygon fill="#181818" points="540.97,422.2969,531.97,418.2969,535.97,422.2969,531.97,426.2969,540.97,422.2969" style="stroke:#181818;stroke-width:1;"/><text fill="#000000" font-family="sans-serif" font-size="13" lengthAdjust="spacing" textLength="61.1851" x="420.27" y="418.3638">«extend»</text></g><!--link UC_Text to UC_FontSize--><g class="link" data-entity-1="ent0008" data-entity-2="ent0010" data-link-type="dependency" data-source-line="28" id="lnk20"><path d="M334.52,410.2569 C390.53,397.4869 473.5401,378.5704 536.2301,364.2804" fill="none" id="UC_Text-to-UC_FontSize" style="stroke:#181818;stroke-width:1;stroke-dasharray:7,7;"/><polygon fill="#181818" points="542.08,362.9469,532.4161,361.0471,537.205,364.0581,534.1941,368.8471,542.08,362.9469" style="stroke:#181818;stroke-width:1;"/><text fill="#000000" font-family="sans-serif" font-size="13" lengthAdjust="spacing" textLength="61.1851" x="420.27" y="374.3638">«extend»</text></g><?plantuml-src ZLBBIYD15DtNLrooL_SYsGXP2ofk16cIKXkRBkYkWK4PYAte3ECO444tuY-qZs1CJFo5U_zeJbMhtJPAKelYrgrppdtQq4QQ-8PpEPHCkZpXPnxoW60Ev13FUyvv3Bkd8hrjoHfAmfrTIvqmqMqRcbYfe6rDGdmBz4ZE-AbWISPzzrRA0ODu1u4Q6oijMWd2s3ReG17EZrItWnG_V0tY2oWkM2Pd92TGwKj6aBk3EU57brc3WfJMbxTMRMBszBA9J3Apq1Dg6V40pufGAuoYcMGoNzyVyCToH5u8VwNGscxOtejrcjQ4BX1j9EToMWWjyBty_UpQZAkfGLoEOJx8aNIhMUfEJVdIjoO7wIF5FlYOv4TE-gUjfuFeTnXlNb1--qaVbvIMYQTGO1IzaMw5ptbLOJNSrrx5Nx6n-crlp7Qj77VugZAPdFZLYHRTbvwR7MhgbUWXoJ_07U4LIvhp2s5bVL_7F85dw7mUh-EEZwv-AVNTXjBSNBE-KjEmvTPCGvPhCOiccZ9LqCrKlHaqFzzyxpajqj8IVAYvsVmAu8Ro2VGV?></g></svg>