<?plantuml 1.2026.2beta3?>
<svg xmlns="http://www.w3.org/2000/svg" xmlns:xlink="http://www.w3.org/1999/xlink" contentStyleType="text/css" data-diagram-type="DESCRIPTION" height="382px" preserveAspectRatio="none" style="width:1168px;height:382px;background:#FFFFFF;" version="1.1" viewBox="0 0 1168 382" width="1168px" zoomAndPan="magnify"><title>Работа с документами</title><defs/><g><g class="title" data-source-line="1"><text fill="#000000" font-family="sans-serif" font-size="14" font-weight="bold" lengthAdjust="spacing" textLength="183.6885" x="485.1958" y="22.9951">Работа с документами</text></g><!--cluster WPF Paint--><g class="cluster" data-qualified-name="WPF Paint" data-source-line="6" id="ent0003"><rect fill="none" height="332" rx="2.5" ry="2.5" style="stroke:#181818;stroke-width:1;" width="1005.98" x="156.1" y="44.2969"/><text fill="#000000" font-family="sans-serif" font-size="14" font-weight="bold" lengthAdjust="spacing" textLength="81.3066" x="618.4367" y="59.292">WPF Paint</text></g><!--entity UC_MultiDoc--><g class="entity" data-qualified-name="WPF Paint.UC_MultiDoc" data-source-line="7" id="ent0004"><ellipse cx="283.2786" cy="103.2967" fill="#F1F1F1" rx="97.8886" ry="24.3098" style="stroke:#181818;stroke-width:0.5;"/><text fill="#000000" font-family="sans-serif" font-size="14" lengthAdjust="spacing" textLength="145.1338" x="210.7117" y="102.3633">Открыть несколько</text><text fill="#000000" font-family="sans-serif" font-size="14" lengthAdjust="spacing" textLength="88.2861" x="239.1355" y="118.6602">документов</text></g><!--entity UC_Switch--><g class="entity" data-qualified-name="WPF Paint.UC_Switch" data-source-line="8" id="ent0005"><ellipse cx="283.2793" cy="187.2927" fill="#F1F1F1" rx="111.1793" ry="24.6359" style="stroke:#181818;stroke-width:0.5;"/><text fill="#000000" font-family="sans-serif" font-size="14" lengthAdjust="spacing" textLength="169.9277" x="198.3155" y="186.6972">Переключиться между</text><text fill="#000000" font-family="sans-serif" font-size="14" lengthAdjust="spacing" textLength="99.709" x="233.4248" y="202.9941">документами</text></g><!--entity UC_Close--><g class="entity" data-qualified-name="WPF Paint.UC_Close" data-source-line="9" id="ent0006"><ellipse cx="283.2801" cy="266.2969" fill="#F1F1F1" rx="83.2501" ry="19.05" style="stroke:#181818;stroke-width:0.5;"/><text fill="#000000" font-family="sans-serif" font-size="14" lengthAdjust="spacing" textLength="138.2773" x="214.1414" y="270.9453">Закрыть документ</text></g><!--entity draw--><g class="entity" data-qualified-name="WPF Paint.draw" data-source-line="10" id="ent0007"><ellipse cx="283.2799" cy="340.2928" fill="#F1F1F1" rx="87.3299" ry="19.866" style="stroke:#181818;stroke-width:0.5;"/><text fill="#000000" font-family="sans-serif" font-size="14" lengthAdjust="spacing" textLength="147.6699" x="209.4449" y="344.9413">Изменить документ</text></g><!--entity UC_Modified--><g class="entity" data-qualified-name="WPF Paint.UC_Modified" data-source-line="11" id="ent0008"><ellipse cx="753.9137" cy="329.2976" fill="#F1F1F1" rx="125.4537" ry="27.4907" style="stroke:#181818;stroke-width:0.5;"/><text fill="#000000" font-family="sans-serif" font-size="14" lengthAdjust="spacing" textLength="187.2158" x="660.3058" y="326.3053">Отображение изменений</text><text fill="#000000" font-family="sans-serif" font-size="14" lengthAdjust="spacing" textLength="178.1582" x="664.8346" y="342.6022">(звездочка в заголовке)</text></g><!--entity UC_SaveBeforeClose--><g class="entity" data-qualified-name="WPF Paint.UC_SaveBeforeClose" data-source-line="12" id="ent0009"><ellipse cx="753.912" cy="242.3004" fill="#F1F1F1" rx="87.072" ry="24.3835" style="stroke:#181818;stroke-width:0.5;"/><text fill="#000000" font-family="sans-serif" font-size="14" lengthAdjust="spacing" textLength="128.1465" x="689.8388" y="241.2529">Сохранить перед</text><text fill="#000000" font-family="sans-serif" font-size="14" lengthAdjust="spacing" textLength="80.8486" x="713.4877" y="257.5498">закрытием</text></g><g class="entity" data-qualified-name="WPF Paint.GMN10" data-source-line="15" id="ent0011"><path d="M940.37,309.1669 L940.37,325.2969 L879.68,329.2969 L940.37,333.2969 L940.37,349.4325 A0,0 0 0 0 940.37,349.4325 L1146.0868,349.4325 A0,0 0 0 0 1146.0868,349.4325 L1146.0868,319.1669 L1136.0868,309.1669 L940.37,309.1669 A0,0 0 0 0 940.37,309.1669" fill="#FEFFDD" style="stroke:#181818;stroke-width:0.5;"/><path d="M1136.0868,309.1669 L1136.0868,319.1669 L1146.0868,319.1669 L1136.0868,309.1669" fill="#FEFFDD" style="stroke:#181818;stroke-width:0.5;"/><text fill="#000000" font-family="sans-serif" font-size="13" lengthAdjust="spacing" textLength="180.5845" x="946.37" y="326.2338">Индикатор "*" появляется</text><text fill="#000000" font-family="sans-serif" font-size="13" lengthAdjust="spacing" textLength="182.8569" x="946.37" y="341.3666">при изменении документа</text></g><!--entity ????????????--><g class="entity" data-qualified-name="............" data-source-line="4" id="ent0002"><ellipse cx="57.5498" cy="207.6469" fill="#F1F1F1" rx="8" ry="8" style="stroke:#181818;stroke-width:0.5;"/><path d="M57.5498,215.6469 L57.5498,242.6469 M44.5498,223.6469 L70.5498,223.6469 M57.5498,242.6469 L44.5498,257.6469 M57.5498,242.6469 L70.5498,257.6469" fill="none" style="stroke:#181818;stroke-width:0.5;"/><text fill="#000000" font-family="sans-serif" font-size="14" lengthAdjust="spacing" textLength="103.0996" x="6" y="272.142">Пользователь</text></g><!--link ???????????? to draw--><g class="link" data-entity-1="ent0002" data-entity-2="ent0007" data-link-type="dependency" data-source-line="21" id="lnk13"><path d="M103.88,275.6669 C117.45,285.7569 132.81,295.8769 148.1,303.2969 C169.4,313.6469 188.2497,319.99 210.5697,325.74" fill="none" id="Пользователь-to-draw" style="stroke:#181818;stroke-width:1;"/><polygon fill="#181818" points="216.38,327.2369,208.6624,321.1181,211.5381,325.9895,206.6667,328.8652,216.38,327.2369" style="stroke:#181818;stroke-width:1;"/></g><!--link ???????????? to UC_MultiDoc--><g class="link" data-entity-1="ent0002" data-entity-2="ent0004" data-link-type="dependency" data-source-line="22" id="lnk14"><path d="M88.22,198.8469 C104.21,180.3969 125.31,159.3069 148.1,145.2969 C166.4,134.0469 182.2346,127.329 202.6746,121.049" fill="none" id="Пользователь-to-UC_MultiDoc" style="stroke:#181818;stroke-width:1;"/><polygon fill="#181818" points="208.41,119.2869,198.6321,118.1065,203.6305,120.7553,200.9817,125.7537,208.41,119.2869" style="stroke:#181818;stroke-width:1;"/></g><!--link ???????????? to UC_Switch--><g class="link" data-entity-1="ent0002" data-entity-2="ent0005" data-link-type="dependency" data-source-line="23" id="lnk15"><path d="M109.6,225.8869 C137.45,219.6669 166.6842,213.1244 197.9442,206.1444" fill="none" id="Пользователь-to-UC_Switch" style="stroke:#181818;stroke-width:1;"/><polygon fill="#181818" points="203.8,204.8369,194.1446,202.8943,198.9202,205.9265,195.888,210.702,203.8,204.8369" style="stroke:#181818;stroke-width:1;"/></g><!--link ???????????? to UC_Close--><g class="link" data-entity-1="ent0002" data-entity-2="ent0006" data-link-type="dependency" data-source-line="24" id="lnk16"><path d="M109.6,243.9169 C139.39,247.7769 171.4997,251.9359 204.2997,256.1859" fill="none" id="Пользователь-to-UC_Close" style="stroke:#181818;stroke-width:1;"/><polygon fill="#181818" points="210.25,256.9569,201.8386,251.8335,205.2915,256.3144,200.8106,259.7672,210.25,256.9569" style="stroke:#181818;stroke-width:1;"/></g><!--link UC_Close to UC_SaveBeforeClose--><g class="link" data-entity-1="ent0006" data-entity-2="ent0009" data-link-type="dependency" data-source-line="26" id="lnk17"><path d="M365.11,262.1569 C449.68,257.8269 575.8979,251.3639 661.9779,246.9539" fill="none" id="UC_Close-to-UC_SaveBeforeClose" style="stroke:#181818;stroke-width:1;stroke-dasharray:7,7;"/><polygon fill="#181818" points="667.97,246.6469,658.7771,243.1126,662.9765,246.9027,659.1864,251.1021,667.97,246.6469" style="stroke:#181818;stroke-width:1;"/><text fill="#000000" font-family="sans-serif" font-size="13" lengthAdjust="spacing" textLength="172.7896" x="425.46" y="232.3638">«extend» [если документ</text><text fill="#000000" font-family="sans-serif" font-size="13" lengthAdjust="spacing" textLength="63.2354" x="480.2371" y="247.4966">изменен]</text></g><!--link draw to UC_Modified--><g class="link" data-entity-1="ent0007" data-entity-2="ent0008" data-link-type="dependency" data-source-line="27" id="lnk18"><path d="M370.51,338.2769 C442.94,336.5769 541.3616,334.2576 622.8016,332.3476" fill="none" id="draw-to-UC_Modified" style="stroke:#181818;stroke-width:1;stroke-dasharray:7,7;"/><polygon fill="#181818" points="628.8,332.2069,619.7087,328.419,623.8014,332.3241,619.8963,336.4168,628.8,332.2069" style="stroke:#181818;stroke-width:1;"/><text fill="#000000" font-family="sans-serif" font-size="13" lengthAdjust="spacing" textLength="63.0068" x="479.96" y="329.3638">«include»</text></g><?plantuml-src XLF1RjD04BtlLuny0gJs0r3b0qNSa2eXn84YPDcRTYNBApaRYeIGabQ80nKzmed27xWX9iPfqb-O_IFURkAaE8RwiDvTptlpvitOA9DAukzSy1Klx2aNP4V44rvmRS_ucakUkrliAf7AdY6ZALT7nuOIbSlOA9q94SL6vyINGCtiEK_n7dC1NEdEGhZ0A3j2fk35mHCwY5Hc0ded2C-WB-EeZo_y3O3Q3kqdUshFYUTSsX7NAqwy3xCjNSWJKDIdv_kldmvIenxhk4Lw2POXeckmVBOVkNBaTcGlo9Fyueazwo3s1JVKpqwKYOzRn5yGSqjjYw21xgUwBrl8hp38Xot5T6EJF3hfy6V1LoYdW6wFvvAmD7JBgz-7sJrSZN6SEceKNQEjF2QS2_xf3FKDghcyltPF9wgdPD9A-GFm3pxXMkpDoj09N9jkF71Q-7hjMFH6Ff8zdSkD0Nx9j96h-T6zhSJkWJrpoAwSQ5Um7LBm871v5_O2gcTOIqXnBTo0Rg2fslQYwXXb3v9PuhM8zqA8VmqkxUo4oqRyD-BsyDqLk1gbkyAMhebcHxkxOOUjz93szkHRWsB2a5xw_sNMKJCwzPSnhuGhgY5jEk3PL1QdWqI6uHy0?></g></svg>