<?plantuml 1.2026.2beta3?>
<svg xmlns="http://www.w3.org/2000/svg" xmlns:xlink="http://www.w3.org/1999/xlink" contentStyleType="text/css" data-diagram-type="DESCRIPTION" height="457px" preserveAspectRatio="none" style="width:830px;height:457px;background:#FFFFFF;" version="1.1" viewBox="0 0 830 457" width="830px" zoomAndPan="magnify"><title>Управление документами</title><defs/><g><g class="title" data-source-line="1"><text fill="#000000" font-family="sans-serif" font-size="14" font-weight="bold" lengthAdjust="spacing" textLength="211.374" x="302.773" y="22.9951">Управление документами</text></g><!--cluster WPF Paint--><g class="cluster" data-qualified-name="WPF Paint" data-source-line="6" id="ent0003"><rect fill="none" height="407" rx="2.5" ry="2.5" style="stroke:#181818;stroke-width:1;" width="668.82" x="156.1" y="44.2969"/><text fill="#000000" font-family="sans-serif" font-size="14" font-weight="bold" lengthAdjust="spacing" textLength="81.3066" x="449.8567" y="59.292">WPF Paint</text></g><!--entity UC_New--><g class="entity" data-qualified-name="WPF Paint.UC_New" data-source-line="7" id="ent0004"><ellipse cx="277.0646" cy="102.2998" fill="#F1F1F1" rx="104.9646" ry="23.3929" style="stroke:#181818;stroke-width:0.5;"/><text fill="#000000" font-family="sans-serif" font-size="14" lengthAdjust="spacing" textLength="186.9424" x="183.5935" y="106.9482">Создать новый документ</text></g><!--entity UC_Open--><g class="entity" data-qualified-name="WPF Paint.UC_Open" data-source-line="8" id="ent0005"><ellipse cx="277.0589" cy="186.2936" fill="#F1F1F1" rx="81.3589" ry="25.7967" style="stroke:#181818;stroke-width:0.5;"/><text fill="#000000" font-family="sans-serif" font-size="14" lengthAdjust="spacing" textLength="107.0234" x="223.5472" y="182.4373">Открыть файл</text><text fill="#000000" font-family="sans-serif" font-size="14" lengthAdjust="spacing" textLength="112.0342" x="221.0418" y="198.7342">(BMP, JPG, PNG)</text></g><!--entity UC_Save--><g class="entity" data-qualified-name="WPF Paint.UC_Save" data-source-line="9" id="ent0006"><ellipse cx="277.0607" cy="267.299" fill="#F1F1F1" rx="90.4107" ry="20.4821" style="stroke:#181818;stroke-width:0.5;"/><text fill="#000000" font-family="sans-serif" font-size="14" lengthAdjust="spacing" textLength="154.6699" x="199.7257" y="271.9474">Сохранить документ</text></g><!--entity UC_SaveAs--><g class="entity" data-qualified-name="WPF Paint.UC_SaveAs" data-source-line="10" id="ent0007"><ellipse cx="277.0623" cy="340.3013" fill="#F1F1F1" rx="76.3723" ry="17.6745" style="stroke:#181818;stroke-width:0.5;"/><text fill="#000000" font-family="sans-serif" font-size="14" lengthAdjust="spacing" textLength="122.042" x="216.0413" y="344.9498">Сохранить как...</text></g><!--entity UC_Exit--><g class="entity" data-qualified-name="WPF Paint.UC_Exit" data-source-line="11" id="ent0008"><ellipse cx="277.0641" cy="414.2957" fill="#F1F1F1" rx="95.0941" ry="21.4188" style="stroke:#181818;stroke-width:0.5;"/><text fill="#000000" font-family="sans-serif" font-size="14" lengthAdjust="spacing" textLength="165.1836" x="194.4723" y="418.9441">Выход из приложения</text></g><!--entity UC_Confirm--><g class="entity" data-qualified-name="WPF Paint.UC_Confirm" data-source-line="13" id="ent0009"><ellipse cx="694.4764" cy="400.2962" fill="#F1F1F1" rx="114.4464" ry="25.2893" style="stroke:#181818;stroke-width:0.5;"/><text fill="#000000" font-family="sans-serif" font-size="14" lengthAdjust="spacing" textLength="188.959" x="599.997" y="401.2711">Подтвердить сохранение</text><text fill="#000000" font-family="sans-serif" font-size="14" lengthAdjust="spacing" textLength="80.835" x="654.059" y="417.568">изменений</text></g><!--entity ????????????--><g class="entity" data-qualified-name="............" data-source-line="4" id="ent0002"><ellipse cx="57.5498" cy="237.6469" fill="#F1F1F1" rx="8" ry="8" style="stroke:#181818;stroke-width:0.5;"/><path d="M57.5498,245.6469 L57.5498,272.6469 M44.5498,253.6469 L70.5498,253.6469 M57.5498,272.6469 L44.5498,287.6469 M57.5498,272.6469 L70.5498,287.6469" fill="none" style="stroke:#181818;stroke-width:0.5;"/><text fill="#000000" font-family="sans-serif" font-size="14" lengthAdjust="spacing" textLength="103.0996" x="6" y="302.142">Пользователь</text></g><!--link ???????????? to UC_New--><g class="link" data-entity-1="ent0002" data-entity-2="ent0004" data-link-type="dependency" data-source-line="16" id="lnk10"><path d="M77.69,228.8969 C93.2,201.4269 117.47,165.5169 148.1,143.2969 C163.2,132.3369 175.6814,126.1348 193.5114,120.1548" fill="none" id="Пользователь-to-UC_New" style="stroke:#181818;stroke-width:1;"/><polygon fill="#181818" points="199.2,118.2469,189.3952,117.3163,194.4595,119.8368,191.9391,124.9011,199.2,118.2469" style="stroke:#181818;stroke-width:1;"/></g><!--link ???????????? to UC_Open--><g class="link" data-entity-1="ent0002" data-entity-2="ent0005" data-link-type="dependency" data-source-line="17" id="lnk11"><path d="M109.42,244.9069 C121.99,239.5969 135.47,234.0869 148.1,229.2969 C170.89,220.6469 190.5823,213.8072 212.7023,206.5072" fill="none" id="Пользователь-to-UC_Open" style="stroke:#181818;stroke-width:1;"/><polygon fill="#181818" points="218.4,204.6269,208.5998,203.6489,213.6519,206.1938,211.107,211.2459,218.4,204.6269" style="stroke:#181818;stroke-width:1;"/></g><!--link ???????????? to UC_Save--><g class="link" data-entity-1="ent0002" data-entity-2="ent0006" data-link-type="dependency" data-source-line="18" id="lnk12"><path d="M109.55,267.2969 C132.4,267.2969 154.05,267.2969 180.19,267.2969" fill="none" id="Пользователь-to-UC_Save" style="stroke:#181818;stroke-width:1;"/><polygon fill="#181818" points="186.19,267.2969,177.19,263.2969,181.19,267.2969,177.19,271.2969,186.19,267.2969" style="stroke:#181818;stroke-width:1;"/></g><!--link ???????????? to UC_SaveAs--><g class="link" data-entity-1="ent0002" data-entity-2="ent0007" data-link-type="dependency" data-source-line="19" id="lnk13"><path d="M109.23,290.1969 C121.8,295.4969 135.34,300.8669 148.1,305.2969 C172.36,313.7169 193.9534,319.9358 217.1634,325.9758" fill="none" id="Пользователь-to-UC_SaveAs" style="stroke:#181818;stroke-width:1;"/><polygon fill="#181818" points="222.97,327.4869,215.2675,321.3492,218.1312,326.2277,213.2527,329.0913,222.97,327.4869" style="stroke:#181818;stroke-width:1;"/></g><!--link ???????????? to UC_Exit--><g class="link" data-entity-1="ent0002" data-entity-2="ent0008" data-link-type="dependency" data-source-line="20" id="lnk14"><path d="M82.03,305.7069 C98.01,328.8969 121.13,357.3469 148.1,375.2969 C164.82,386.4269 179.1166,392.751 198.3066,398.551" fill="none" id="Пользователь-to-UC_Exit" style="stroke:#181818;stroke-width:1;"/><polygon fill="#181818" points="204.05,400.2869,196.5922,393.8541,199.2638,398.8403,194.2776,401.512,204.05,400.2869" style="stroke:#181818;stroke-width:1;"/></g><!--link UC_Exit to UC_Confirm--><g class="link" data-entity-1="ent0008" data-entity-2="ent0009" data-link-type="dependency" data-source-line="22" id="lnk15"><path d="M371.55,411.1469 C433.64,409.0569 509.4834,406.4988 575.1134,404.2888" fill="none" id="UC_Exit-to-UC_Confirm" style="stroke:#181818;stroke-width:1;stroke-dasharray:7,7;"/><polygon fill="#181818" points="581.11,404.0869,571.9805,400.392,576.1128,404.2551,572.2497,408.3875,581.11,404.0869" style="stroke:#181818;stroke-width:1;"/><text fill="#000000" font-family="sans-serif" font-size="13" lengthAdjust="spacing" textLength="136.8047" x="413.03" y="386.3638">«extend» [если есть</text><text fill="#000000" font-family="sans-serif" font-size="13" lengthAdjust="spacing" textLength="79.5044" x="441.6801" y="401.4966">изменения]</text></g><?plantuml-src ZP7_Ii9G5CV_lqznyAy2tGE434fA2B91H7zanD2h3Umkjbi94MZbNmf23r14Bo2ovPncht3k6tKsDn0brlxP_N6-v_kzdoCjsUA0d_YZEZZ2CSxGnsyCq0VqS86XUiPvTAIUw7gE0MlnXWHfWsCrhoJKBOVNf6KBnioQj1t0TrBDr00dz1_ZY7H-j6SiAZH5a-noPyO16AObP0uU6D1tw_AQwT8DVf1iGjOaL0EWADH5zN6w4IS7fWkdfSiAlrzhyKQUeUgeVjn2lL3mASwgOclloCZ3eL7EWr4fRwSDZc-us0oXUZ4GGh4CyeVxYNd7iyKXRK9DqrPLk-wQxfK2zyZ50y8_WNWY0SrZWL_BcQXXgjzlMp9MhxM8s7lq-Z7w9FOIUzLTIPHCjoeYa-LhahDfshraYuRbNBD7nlwQ9XGAUWe_goRccrKKS_nF4M7BAelfi6G1cgQlF0fse5ZaRSb5NTVXd3Xr2N40qIA2jSb53Iz-0G00?></g></svg>